<svg version="1.2" xmlns="http://www.w3.org/2000/svg" viewBox="0 0 41 40" width="41" height="40">
	<title>sixsport_horizontal-svg</title>
	<style>
		.s0 { fill: #000000 } 
	</style>
	<path class="s0" d="m17.1 0.3l-13.8 21.3 29-17.7c-4.2-3.1-9.7-4.5-15.2-3.6z"/>
	<path class="s0" d="m13.9 1c-9.1 3-14.9 12-13.8 21.4z"/>
	<path class="s0" d="m27.4 38.8c8.6-3.2 14-11.7 13.2-20.7z"/>
	<path class="s0" d="m34.2 5.3l-27.8 17 33.4-8.2c-1.1-3.5-3.1-6.5-5.6-8.8z"/>
	<path class="s0" d="m6.9 35l28-17.4-34 8.3c1.2 3.7 3.3 6.7 6 9.1z"/>
	<path class="s0" d="m24.2 39.6l13.6-21.2-29 18.1c4.4 2.9 9.9 4.2 15.4 3.1z"/>
	<path class="s0" d="m126.1 25.9q0-3.3 0-6.6c0 2.2 0 4.4 0 6.6z"/>
	<path class="s0" d="m87 11.9q0.3-1.3 0.6-2.6c0.2-0.9 0.4-1.9 0.6-2.7 0.1-0.4-0.1-0.5-0.5-0.5q-2.3 0-4.5 0c-0.2 0-0.5 0.2-0.5 0.4-0.1 0.4-0.1 0.9-0.2 1.3q-0.5 2.8-0.9 5.6c0 0.2-0.2 0.4-0.2 0.6-0.1 0-0.2 0-0.3 0-0.1-0.6-0.2-1.2-0.2-1.8q-0.5-2.8-0.9-5.6c0-0.3-0.1-0.4-0.5-0.4q-2.3 0-4.7 0-0.5 0-0.4 0.4c0.2 0.8 0.3 1.6 0.5 2.3 0.3 1.2 0.5 2.4 0.8 3.6 0.3 1.2 0.5 2.5 0.8 3.7q0.3 0.8 0.3 1.6l9.1-1.1c0.1-0.4 0.3-0.8 0.4-1.2 0.2-1.3 0.5-2.4 0.7-3.6z"/>
	<path class="s0" d="m95 13.9c0.1-0.7 0-1.5 0-2.2 0-0.8 0.3-1.2 0.8-1.2 0.5 0 0.7 0.3 0.7 1.2 0 0.8 0 1.7 0 2.6 0 0.4 0.1 0.6 0.5 0.6 0.8 0 1.5 0 2.2 0q1.1 0 2.3 0c0.4 0 0.6-0.1 0.5-0.5 0-1.5 0-3-0.2-4.5-0.1-1.7-1.1-2.9-2.7-3.5-2.1-0.8-4.2-0.8-6.3-0.2-1.9 0.6-3 1.9-3.2 3.8-0.2 1.4-0.1 2.9-0.1 4.4 0 0.6 0 1.2 0.2 1.9l6-0.7c-0.5-0.4-0.7-1-0.7-1.7z"/>
	<path class="s0" d="m116.9 12.2c0-1.1-0.1-2.2-0.2-3.3-0.2-1.1-0.7-1.9-1.7-2.3-0.6-0.3-1.3-0.4-1.9-0.4-2.7-0.1-5.4-0.1-8.1-0.1-0.8 0-0.8 0-0.8 0.7 0 2.8 0 5.5 0 8.3l5.7 0.9c0-1.6 0-3.1 0-4.6 0-0.3 0-0.6 0.4-0.6 0.6-0.1 0.9 0.1 1 0.5q0.1 0.4 0.1 0.8 0 2.1 0 4.1l5.6 0.9q-0.1-2.4-0.1-4.9z"/>
	<path class="s0" d="m111.3 21.4q0 0.4 0 0.7c-0.1 0.6-0.7 1-1.2 0.7-0.1-0.1-0.2-0.4-0.2-0.6 0-0.8 0-1.5 0-2.3 0-0.8 0-1.5 0-2.3l-5.7-0.9q0 1.7 0 3.3 0 5.8 0 11.7c0 0.4 0.1 0.6 0.7 0.6q2.2 0 4.4 0c0.5 0 0.6-0.1 0.6-0.5 0-1.2 0-2.4 0-3.5 0-0.8 0-0.8 0.8-0.8 0.9 0 1.8 0 2.6-0.1 1.4-0.2 2.6-0.5 3.2-1.9 0.2-0.8 0.4-1.7 0.4-2.6 0.1-1.4 0.1-2.8 0.1-4.2l-5.6-0.9c-0.1 1.2-0.1 2.4-0.1 3.6z"/>
	<path class="s0" d="m71.8 6.1q-2.1 0-4.3 0c-0.6 0-0.7 0.1-0.7 0.7 0 3.9 0 7.7 0 11.6q0 0.2 0 0.4l5.7-0.7c0-3.8 0-7.6 0-11.4 0-0.5-0.2-0.6-0.7-0.6z"/>
	<path class="s0" d="m90 18.7c0.6 1.3 1.7 2.1 3 2.7 0.8 0.3 1.6 0.7 2.4 1.1 0.5 0.2 1 0.6 1.1 1.2q0 1.7 0 3.5c0 0.5-0.5 0.8-0.9 0.6-0.3-0.2-0.5-0.5-0.5-0.8-0.1-1-0.1-2-0.1-3 0-0.4-0.1-0.6-0.5-0.6-1.4 0-2.9 0.1-4.3 0-0.5 0-0.6 0.2-0.6 0.6 0 1.4 0 2.7 0 4 0.1 1.9 1.2 3.4 3.1 4 1.4 0.5 2.9 0.6 4.4 0.4 3.1-0.3 5-1.7 5.1-5.3 0-1.1-0.1-2.3 0-3.4 0-2.3-1.1-3.9-3-4.8-1-0.5-1.9-0.9-2.8-1.3-0.3-0.2-0.5-0.3-0.7-0.5l-6 0.7q0.1 0.5 0.3 0.9z"/>
	<path class="s0" d="m76.6 21.9c-0.4 1.2-0.6 2.4-0.9 3.6-0.2 1.2-0.5 2.4-0.8 3.6q-0.3 1.6-0.6 3.1 0.1 0.1 0.2 0.1c1.6 0 3.3 0 5 0 0.1 0 0.3-0.2 0.4-0.3 0.1-0.4 0.1-0.9 0.2-1.3 0.3-1.9 0.6-3.8 0.9-5.7 0-0.3 0.2-0.5 0.3-0.8 0 0 0.1-0.1 0.2-0.1 0 0.2 0.1 0.3 0.2 0.4 0.1 1 0.3 1.9 0.4 2.9q0.4 2.3 0.8 4.6c0 0.1 0.2 0.3 0.3 0.3q2.5 0.1 4.9 0c0.1 0 0.4-0.3 0.3-0.4-0.2-1.1-0.4-2.2-0.7-3.2-0.3-1.2-0.6-2.4-0.8-3.5-0.3-1.3-0.6-2.5-0.9-3.8-0.1-0.6-0.3-1.3-0.2-1.9 0-0.4 0.1-0.9 0.2-1.3l-9.1 1c0 1-0.1 1.8-0.3 2.7z"/>
	<path class="s0" d="m66.8 31.7c0 0.4 0.1 0.7 0.6 0.6q2.3 0 4.5 0c0.4 0 0.6-0.1 0.6-0.5q0-6.1 0-12.1l-5.7 0.6q0 5.7 0 11.4z"/>
	<path class="s0" d="m61.7 17.3c-1-0.5-1.9-0.9-2.8-1.3-0.9-0.4-1.3-1.1-1.2-2 0-0.9 0-1.7 0-2.5 0-0.6 0.2-1 0.7-1 0.6 0 0.7 0.5 0.7 0.9 0 1 0 2 0 3 0 0.3 0.1 0.5 0.5 0.5 0.8 0 1.5 0 2.2 0 0.8 0 1.5 0 2.2 0 0.5 0 0.7-0.1 0.6-0.5 0-1.5 0-3-0.2-4.5-0.2-1.7-1.1-2.9-2.7-3.5-2.1-0.8-4.2-0.8-6.4-0.1-1.8 0.5-2.9 1.8-3.1 3.6-0.1 1.6-0.1 3.1-0.1 4.7 0 0.8 0.2 1.7 0.5 2.5 0.5 1.3 1.7 2.1 3 2.7 0.1 0 0.2 0.1 0.3 0.1l7.9-0.9c-0.4-0.7-1.2-1.3-2.1-1.7z"/>
	<path class="s0" d="m58.1 22.5c0.5 0.3 0.9 0.6 0.9 1.2 0.1 1.2 0.1 2.4 0 3.5 0 0.5-0.2 0.7-0.7 0.7-0.5-0.1-0.6-0.4-0.6-0.8 0-1-0.1-2.1 0-3.1 0-0.4-0.2-0.5-0.6-0.5q-2.2 0-4.3 0c-0.5 0-0.7 0.2-0.6 0.6 0 1.4 0 2.7 0 4 0.1 1.7 0.9 3.1 2.6 3.8 2.1 0.9 4.2 0.9 6.4 0.3 2-0.5 3.2-1.8 3.4-3.8 0.2-2 0.2-4 0-6-0.1-0.7-0.4-1.3-0.7-1.8l-8 0.9q1.1 0.5 2.2 1z"/>
	<path class="s0" d="m156.8 11.5c0-0.7 0-0.7 0.8-0.7 0.6 0 1.2-0.1 1.8 0 0.4 0 0.6-0.2 0.6-0.7q-0.1-1.7 0-3.5c0-0.4-0.2-0.6-0.6-0.6-1.3 0.1-2.6 0-3.9 0q-3.5 0-7 0c-0.5 0-0.7 0.2-0.7 0.7 0 1.1 0 2.3 0 3.4 0 0.5 0.1 0.7 0.6 0.6 0.7 0 1.3 0.1 2 0 0.5 0 0.7 0.2 0.7 0.7q0 2.3 0 4.6l5.7 1q0-2.7 0-5.5z"/>
	<path class="s0" d="m146.5 11.9c0-1-0.1-2-0.2-3-0.2-1.2-0.8-2-2-2.4q-0.8-0.3-1.6-0.3c-2.8-0.1-5.6-0.1-8.3-0.1-0.5 0-0.6 0.2-0.6 0.6 0 3.5 0 6.9 0 10.4l5.7-1c0-0.4 0-0.7 0-1 0-1.3 0-2.5 0-3.8 0-0.2-0.1-0.5 0.4-0.6 0.5 0 0.9 0.2 1 0.5q0 0.2 0 0.4 0 2.1 0 4.2l4.2-0.8 1.4 0.3q0.1-1.7 0-3.4z"/>
	<path class="s0" d="m128.8 6.4c-2.1-0.8-4.3-0.8-6.5-0.2-2.1 0.7-3.2 2.3-3.3 4.5 0 2.2 0 4.4 0 6.6l5.7 0.9c0-2.2 0-4.4 0-6.7 0 0 0-0.1 0-0.2 0-0.4 0.2-0.7 0.7-0.7 0.5 0 0.7 0.3 0.7 0.7 0 0.8 0 1.6 0 2.5 0 1.5 0 3 0 4.6q0 0 0 0l5.7-1q0-3.6-0.1-7.1c0-1.9-1.1-3.3-2.9-3.9z"/>
	<path class="s0" d="m140.9 17.5q0 1.4 0 2.8c0 0.7-0.2 0.8-0.8 0.9-0.4 0-0.6-0.1-0.6-0.6q0-0.5 0-1c0-0.6 0-1.2 0-1.8l-5.7 1c0 4.3 0 8.6 0 13 0 0.4 0.2 0.6 0.6 0.6 1.5-0.1 2.9-0.1 4.4 0 0.5 0 0.7-0.2 0.7-0.7 0-1.9 0-3.8 0-5.7 0-0.3 0-0.6 0.4-0.5 0.2 0 0.5 0.2 0.5 0.3 0.2 0.6 0.3 1.3 0.5 1.9q0.5 2 1 4.1c0.1 0.4 0.3 0.6 0.8 0.6 1.3 0 2.5 0 3.7 0 0.2 0 0.4-0.1 0.8-0.1-0.3-1-0.6-2-0.8-2.9q-0.7-2.4-1.3-4.8c0-0.2 0-0.5 0.1-0.7 1-1 1.4-2.1 1.4-3.5 0-1.1 0-2.3 0-3.4l-1.4-0.3z"/>
	<path class="s0" d="m126.1 20q0 3.3 0 6.6c0 0.2 0 0.5-0.1 0.6-0.1 0.2-0.3 0.5-0.6 0.6-0.4 0.1-0.6-0.2-0.7-0.5q-0.1-0.2 0-0.5c0-2.3 0-4.7 0-7l-5.7-0.9q0 0.5 0 1.1c0 2.6-0.1 5.3 0 7.9 0.1 2 1.2 3.6 3.2 4.1 1.9 0.7 3.9 0.7 5.9 0.2 1.5-0.4 2.7-1.2 3.3-2.7 0.3-0.9 0.4-1.8 0.4-2.7q0-3.9 0-7.9z"/>
	<path class="s0" d="m156.8 24.6c0-2 0-4 0-5.9l-5.7-1.1c0 1.6 0 3.2 0 4.8 0 3.1 0 6.1 0 9.3 0 0.5 0.2 0.6 0.8 0.6q2.1 0 4.3 0c0.5 0 0.6-0.1 0.6-0.6 0-2.4 0-4.7 0-7.1z"/>
</svg>